HIERARCHY
ROOT Hips
{
 OFFSET 0.000000 0.000000 0.000000
 CHANNELS 6 Xposition Yposition Zposition Yrotation Xrotation Zrotation
 JOINT Chest
 {
  OFFSET 0.000000 9.585900 0.002600
  CHANNELS 3 Yrotation Xrotation Zrotation
  JOINT Chest2
  {
   OFFSET 0.000000 9.601200 -0.005300
   CHANNELS 3 Yrotation Xrotation Zrotation
   JOINT Chest3
   {
    OFFSET 0.000000 9.561800 0.000000
    CHANNELS 3 Yrotation Xrotation Zrotation
    JOINT Chest4
    {
     OFFSET 0.000000 9.552100 0.000000
     CHANNELS 3 Yrotation Xrotation Zrotation
     JOINT Neck
     {
      OFFSET 0.000000 14.453000 0.000000
      CHANNELS 3 Yrotation Xrotation Zrotation
      JOINT Head
      {
       OFFSET 0.000000 8.936500 -0.011300
       CHANNELS 3 Yrotation Xrotation Zrotation
       End Site
       {
        OFFSET 0.000000 17.073600 -0.006000
       }
      }
     }
     JOINT RightCollar
     {
      OFFSET -2.921100 9.558500 0.000000
      CHANNELS 3 Yrotation Xrotation Zrotation
      JOINT RightShoulder
      {
       OFFSET -13.519700 0.000000 0.000000
       CHANNELS 3 Yrotation Xrotation Zrotation
       JOINT RightElbow
       {
        OFFSET 0.000000 -29.696600 0.000000
        CHANNELS 3 Yrotation Xrotation Zrotation
        JOINT RightWrist
        {
         OFFSET 0.000000 -24.004700 0.000000
         CHANNELS 3 Yrotation Xrotation Zrotation
         End Site
         {
          OFFSET 0.000000 -17.728500 0.000000
         }
        }
       }
      }
     }
     JOINT LeftCollar
     {
      OFFSET 2.921100 9.558500 0.000000
      CHANNELS 3 Yrotation Xrotation Zrotation
      JOINT LeftShoulder
      {
       OFFSET 13.519700 0.000000 0.000000
       CHANNELS 3 Yrotation Xrotation Zrotation
       JOINT LeftElbow
       {
        OFFSET 0.000000 -29.696600 0.000000
        CHANNELS 3 Yrotation Xrotation Zrotation
        JOINT LeftWrist
        {
         OFFSET 0.000000 -24.004700 0.000000
         CHANNELS 3 Yrotation Xrotation Zrotation
         End Site
         {
          OFFSET 0.000000 -17.728500 0.000000
         }
        }
       }
      }
     }
    }
   }
  }
 }
 JOINT RightHip
 {
  OFFSET -7.771700 -0.012900 -0.001300
  CHANNELS 3 Yrotation Xrotation Zrotation
  JOINT RightKnee
  {
   OFFSET 0.000000 -40.869800 0.001200
   CHANNELS 3 Yrotation Xrotation Zrotation
   JOINT RightAnkle
   {
    OFFSET 0.000000 -39.717900 0.002100
    CHANNELS 3 Yrotation Xrotation Zrotation
    JOINT RightToe
    {
     OFFSET 0.000000 -4.965400 11.033500
     CHANNELS 3 Yrotation Xrotation Zrotation
     End Site
     {
      OFFSET 0.000000 -1.423100 5.872300
     }
    }
   }
  }
 }
 JOINT LeftHip
 {
  OFFSET 7.771700 -0.012900 -0.001300
  CHANNELS 3 Yrotation Xrotation Zrotation
  JOINT LeftKnee
  {
   OFFSET 0.000000 -40.869800 0.001200
   CHANNELS 3 Yrotation Xrotation Zrotation
   JOINT LeftAnkle
   {
    OFFSET 0.000000 -39.717900 0.002100
    CHANNELS 3 Yrotation Xrotation Zrotation
    JOINT LeftToe
    {
     OFFSET 0.000000 -4.965400 11.033500
     CHANNELS 3 Yrotation Xrotation Zrotation
     End Site
     {
      OFFSET 0.000000 -1.423100 5.872300
     }
    }
   }
  }
 }
}
MOTION
Frames: 15
Frame Time: 0.008333
0.000000 85.388000 0.000000 0.000000 -5.767877 0.000000 0.000000 11.653817 0.000000 0.000000 -5.885947 0.000000 0.000000 -0.000000 0.000000 0.000000 -0.000000 0.000000 0.000000 12.528835 0.000000 0.000000 0.711642 0.000000 0.000000 -0.000000 0.000000 0.000000 0.000000 -90.000000 0.000000 -2.309062 0.000000 0.000000 2.309062 0.000000 0.000000 -0.000000 0.000000 0.000000 -0.000000 90.000000 0.000000 -2.309062 0.000000 0.000000 2.309062 0.000000 0.000000 8.520406 0.000000 0.000000 1.905762 0.000000 -0.000000 -4.658285 0.000000 0.000000 -0.000000 0.000000 0.000000 8.520406 0.000000 0.000000 1.905762 0.000000 -0.000000 -4.658285 0.000000 0.000000 -0.000000 0.000000
-34.761845 53.038018 -1.717373 -176.876476 -16.898847 -1.982608 0.631851 15.648144 0.668511 0.056521 1.500518 0.065278 0.092295 2.518371 0.106368 0.579137 13.930638 0.650401 -0.467966 21.567746 -0.024111 -0.514685 -2.747048 0.092916 0.749382 -0.945270 3.315284 -1.189960 -7.273280 -5.492912 -81.364197 -79.681260 109.541825 -4.366804 -1.387687 -2.277144 -5.483814 -1.154799 0.633541 3.718611 -7.633787 8.525993 57.033142 -58.143186 -94.194330 4.548201 -1.917339 8.543327 1.694954 -61.302798 10.127585 -172.028486 86.384861 -174.384901 -13.181873 -22.910136 14.899459 0.003634 -0.033473 -0.035927 4.710383 -60.075952 -4.272197 119.985243 78.328883 117.886368 -6.632332 -19.129853 -0.969505 0.013419 0.057360 0.012370
-34.761051 53.038839 -1.720964 -176.876332 -16.898471 -1.987978 0.632484 15.647629 0.673035 0.054567 1.499689 0.062906 0.085153 2.515629 0.110992 0.587548 13.932048 0.647627 -0.477352 21.567745 -0.021298 -0.587458 -2.757569 0.134160 0.751181 -0.925140 3.317883 -1.194238 -7.251256 -5.483279 -81.137891 -79.671162 109.310721 -4.356365 -1.348049 -2.269748 -5.481413 -1.137035 0.637588 3.706936 -7.628061 8.521213 57.020812 -58.147532 -94.194913 4.548290 -1.859512 8.534089 1.687226 -61.299049 10.125372 -172.159756 86.383954 -174.519208 -13.151342 -22.917204 14.897413 0.005271 -0.033159 -0.030597 4.695759 -60.076861 -4.254121 120.011152 78.330265 117.911442 -6.631258 -19.129510 -0.973739 0.013769 0.055015 0.012961
-34.758908 53.038850 -1.723353 -176.881646 -16.885231 -1.998724 0.633266 15.636486 0.686661 0.046614 1.500674 0.068178 0.093739 2.511747 0.106022 0.585962 13.923642 0.651558 -0.515850 21.565329 -0.015223 -0.630073 -2.756157 0.156106 0.759849 -0.901817 3.305339 -1.197258 -7.255952 -5.477447 -80.758425 -79.651801 108.922460 -4.352733 -1.274354 -2.263538 -5.479613 -1.114443 0.637655 3.709936 -7.634662 8.509101 56.914330 -58.136782 -94.141426 4.537014 -1.831707 8.540914 1.674495 -61.304798 10.090525 -173.024277 86.385882 -175.433416 -12.805018 -22.954766 14.855054 0.022440 -0.051094 -0.039321 4.673267 -60.092760 -4.222589 120.030130 78.330569 117.928493 -6.631691 -19.128190 -0.976876 0.014518 0.054125 0.012894
-34.758563 53.037988 -1.724836 -176.891566 -16.862515 -1.996136 0.626656 15.621854 0.691664 0.057204 1.493852 0.061684 0.089710 2.509941 0.108841 0.573097 13.910163 0.663501 -0.579223 21.565651 0.000200 -0.642004 -2.748627 0.155070 0.784703 -0.868034 3.280940 -1.207693 -7.241191 -5.465379 -80.508683 -79.649663 108.667563 -4.335843 -1.233780 -2.252425 -5.457172 -1.090981 0.624589 3.689007 -7.617839 8.488282 56.755498 -58.131408 -94.047896 4.512500 -1.848303 8.555413 1.688774 -61.328821 10.087964 -173.005289 86.385751 -175.408146 -12.883974 -22.946425 14.873477 0.019782 -0.040652 -0.027406 4.674769 -60.117074 -4.217186 120.055549 78.328137 117.949034 -6.629451 -19.128632 -0.976219 0.012858 0.052345 0.010622
-34.760176 53.037292 -1.729266 -176.893816 -16.855044 -1.983829 0.618942 15.618061 0.681703 0.059076 1.491823 0.060732 0.084728 2.507770 0.111855 0.571434 13.903485 0.662771 -0.584093 21.571429 -0.001981 -0.717558 -2.744979 0.228183 0.801016 -0.848480 3.268557 -1.229373 -7.194539 -5.457169 -80.409922 -79.654189 108.579446 -4.322270 -1.227876 -2.257639 -5.446474 -1.085886 0.614356 3.666422 -7.593239 8.482636 56.681261 -58.131289 -93.999531 4.505912 -1.825167 8.553505 1.718845 -61.344891 10.126633 -171.977005 86.380469 -174.306501 -13.440677 -22.889316 14.954327 -0.004783 -0.007125 0.003902 4.685315 -60.125129 -4.233493 120.085980 78.325798 117.976391 -6.626489 -19.128536 -0.979075 0.014154 0.047843 0.010092
-34.759567 53.036527 -1.735660 -176.897554 -16.856971 -1.983638 0.618968 15.623395 0.684242 0.056709 1.488542 0.061278 0.087509 2.507266 0.110416 0.563522 13.896897 0.664820 -0.617392 21.574075 0.023008 -0.768855 -2.728219 0.285009 0.821245 -0.830638 3.256620 -1.242782 -7.185021 -5.456209 -80.131078 -79.659978 108.312572 -4.321994 -1.293781 -2.296654 -5.435539 -1.081348 0.605660 3.636597 -7.581596 8.476343 56.678975 -58.138816 -93.978391 4.520848 -1.765619 8.537944 1.731233 -61.346420 10.139631 -171.760172 86.375740 -174.059198 -13.639708 -22.866997 14.976750 -0.011780 -0.004891 0.015994 4.671963 -60.126759 -4.221760 120.166015 78.320877 118.054430 -6.615462 -19.136527 -0.984671 0.014627 0.044697 0.008366
-34.758106 53.034329 -1.739508 -176.897624 -16.841494 -1.987313 0.618323 15.609431 0.688512 0.044732 1.495949 0.064992 0.097291 2.498836 0.107554 0.553614 13.889307 0.663921 -0.700790 21.591480 0.114779 -0.775386 -2.714844 0.282611 0.849311 -0.815059 3.244298 -1.258101 -7.180840 -5.454723 -79.825099 -79.674736 108.026221 -4.339542 -1.465240 -2.372266 -5.423692 -1.076575 0.599534 3.567675 -7.573737 8.460392 56.503194 -58.122197 -93.839275 4.497201 -1.810440 8.580150 1.735528 -61.363923 10.123557 -171.893429 86.369455 -174.195348 -13.564711 -22.868287 14.957888 -0.007110 -0.019813 0.016326 4.650156 -60.147858 -4.205048 120.215061 78.314192 118.100787 -6.613704 -19.140343 -0.987132 0.013820 0.043993 0.005367
-34.756798 53.031443 -1.742905 -176.900201 -16.823300 -1.987693 0.612858 15.598778 0.688029 0.044887 1.490186 0.065079 0.087825 2.496674 0.108036 0.563057 13.885750 0.661551 -0.747124 21.605715 0.177899 -0.834350 -2.689575 0.358991 0.887085 -0.795647 3.223100 -1.289643 -7.193388 -5.437625 -79.466718 -79.693198 107.699578 -4.371570 -1.749367 -2.489315 -5.412205 -1.078270 0.592239 3.551647 -7.569667 8.463274 56.369170 -58.102582 -93.774243 4.488810 -1.815292 8.601546 1.747234 -61.385969 10.106077 -172.038139 86.362553 -174.338623 -13.504201 -22.867693 14.937416 -0.003806 -0.031111 0.017533 4.636119 -60.171743 -4.192517 120.255464 78.308793 118.136864 -6.617731 -19.139182 -0.985545 0.009202 0.044772 0.003432
-34.754458 53.027779 -1.744958 -176.907373 -16.797648 -1.990986 0.607456 15.576981 0.690625 0.052951 1.485040 0.064251 0.088670 2.495690 0.108076 0.559118 13.882570 0.660509 -0.797844 21.624854 0.256590 -0.905296 -2.657083 0.456257 0.916330 -0.782687 3.209714 -1.304531 -7.189492 -5.445750 -79.183272 -79.687694 107.455783 -4.414197 -2.121276 -2.653972 -5.400243 -1.074895 0.585340 3.506680 -7.574693 8.454533 56.275946 -58.098615 -93.702944 4.484164 -1.803249 8.612720 1.758816 -61.412914 10.058625 -172.804468 86.357034 -175.143369 -13.161457 -22.894296 14.879323 0.012425 -0.056852 0.006945 4.620806 -60.204188 -4.173775 120.294912 78.301552 118.172739 -6.618478 -19.139413 -0.985957 0.007630 0.043304 0.000609
-34.751413 53.024825 -1.750022 -176.911384 -16.792691 -1.999027 0.609791 15.571762 0.697343 0.055632 1.484220 0.065762 0.087540 2.492956 0.107840 0.555941 13.870097 0.659479 -0.859810 21.663194 0.351177 -0.992610 -2.616909 0.577031 0.951143 -0.761987 3.197827 -1.316656 -7.182275 -5.460404 -78.937689 -79.666930 107.255010 -4.476932 -2.545694 -2.863183 -5.389667 -1.064350 0.576686 3.416733 -7.610289 8.441528 56.172675 -58.087661 -93.575894 4.473466 -1.786774 8.625985 1.761869 -61.417728 10.027112 -173.406979 86.350354 -175.777674 -12.862254 -22.917741 14.828631 0.026199 -0.075208 0.000876 4.591911 -60.215223 -4.145646 120.342104 78.292307 118.221945 -6.616468 -19.144354 -0.995156 0.008696 0.040842 -0.000459
-34.750209 53.022060 -1.755889 -176.919661 -16.796758 -1.994153 0.615877 15.575776 0.693477 0.051035 1.482918 0.064168 0.087198 2.490578 0.107064 0.554743 13.864056 0.655621 -0.930508 21.707191 0.465478 -1.101117 -2.563981 0.723439 1.003476 -0.756632 3.191017 -1.295276 -7.144391 -5.532864 -78.917616 -79.590469 107.243200 -4.571328 -2.990242 -3.106664 -5.363379 -1.065846 0.547916 3.325773 -7.647197 8.459663 56.080909 -58.081312 -93.479381 4.452948 -1.760061 8.642205 1.787562 -61.423879 10.065569 -172.564918 86.342181 -174.878583 -13.217968 -22.874172 14.870914 0.008881 -0.050577 0.022345 4.584467 -60.212936 -4.140541 120.392354 78.279549 118.279309 -6.615760 -19.156672 -1.013353 0.015273 0.042045 0.002831
-34.751938 53.018825 -1.759898 -176.921701 -16.794382 -1.972680 0.612291 15.573749 0.671022 0.057463 1.479368 0.054912 0.081788 2.491022 0.113628 0.556751 13.853951 0.640886 -1.019730 21.767920 0.607831 -1.232155 -2.495145 0.895540 1.063132 -0.757991 3.198381 -1.318759 -7.109666 -5.566499 -78.813373 -79.540219 107.177327 -4.698772 -3.425079 -3.364064 -5.352745 -1.058807 0.534706 3.263823 -7.676205 8.481338 56.030604 -58.098563 -93.449478 4.417697 -1.719738 8.662942 1.831300 -61.440298 10.095724 -171.421164 86.331738 -173.659358 -13.744186 -22.814619 14.938561 -0.016201 -0.019346 0.043091 4.602269 -60.212547 -4.170106 120.394813 78.271168 118.277668 -6.620371 -19.163476 -1.019425 0.016334 0.046301 0.004410
-34.751554 53.015612 -1.762773 -176.918973 -16.789971 -1.965470 0.612672 15.567845 0.657938 0.057978 1.479826 0.054631 0.081402 2.487061 0.111709 0.555337 13.853922 0.641452 -1.124504 21.834013 0.749315 -1.383202 -2.410564 1.091277 1.134090 -0.774466 3.195371 -1.351827 -7.061191 -5.601526 -78.780721 -79.483604 107.179892 -4.850416 -3.828447 -3.613901 -5.336892 -1.064247 0.495507 3.183672 -7.726661 8.515138 55.986443 -58.138938 -93.409645 4.365830 -1.662948 8.688647 1.851181 -61.447018 10.061322 -171.882270 86.323976 -174.138270 -13.606388 -22.826865 14.916390 -0.009715 -0.033684 0.029238 4.592456 -60.215313 -4.172750 120.393304 78.264290 118.271251 -6.621648 -19.170097 -1.021644 0.015980 0.052414 0.002054
-34.750028 53.012669 -1.765102 -176.920320 -16.788888 -1.965372 0.631847 15.562702 0.639711 0.043489 1.483426 0.075586 0.088576 2.484936 0.102548 0.559992 13.850510 0.631297 -1.240665 21.914343 0.914603 -1.550383 -2.308326 1.307195 1.197979 -0.797810 3.206188 -1.388758 -7.000527 -5.636435 -78.802495 -79.415493 107.235629 -5.008492 -4.186741 -3.848980 -5.340079 -1.061709 0.497161 3.106301 -7.805036 8.518184 55.942124 -58.207789 -93.358253 4.297189 -1.594189 8.719734 1.870958 -61.450064 10.030657 -172.186675 86.317070 -174.468798 -13.353773 -22.846996 14.878386 0.002079 -0.050020 0.015239 4.572548 -60.217317 -4.158358 120.388559 78.257176 118.261698 -6.620861 -19.171647 -1.023314 0.014682 0.055954 -0.001030
